<svg id="svg" version="1.1" xmlns="http://www.w3.org/2000/svg" xmlns:xlink="http://www.w3.org/1999/xlink" width="400"
     height="338.5560675883256" viewBox="0, 0, 400,338.5560675883256">
  <g id="svgg">
    <path id="path1"
          d="M61.561 15.326 L 61.473 30.652 46.151 30.740 L 30.828 30.828 30.740 46.151 L 30.652 61.473 15.326 61.561 L 0.000 61.650 0.000 107.709 L 0.000 153.768 15.411 153.768 L 30.821 153.768 30.821 169.006 L 30.821 184.244 46.147 184.332 L 61.473 184.420 61.561 199.746 L 61.650 215.072 76.887 215.072 L 92.125 215.072 92.125 230.483 L 92.125 245.893 107.536 245.893 L 122.947 245.893 122.947 261.304 L 122.947 276.715 138.357 276.715 L 153.768 276.715 153.768 291.952 L 153.768 307.190 168.925 307.278 L 184.081 307.367 184.169 322.693 L 184.258 338.019 199.661 338.019 L 215.065 338.019 215.153 322.693 L 215.241 307.367 230.567 307.279 L 245.893 307.190 245.893 291.953 L 245.893 276.715 261.131 276.715 L 276.369 276.715 276.457 261.389 L 276.545 246.063 291.868 245.975 L 307.190 245.886 307.279 230.564 L 307.367 215.241 322.689 215.153 L 338.012 215.065 338.100 199.743 L 338.188 184.420 353.341 184.332 L 368.494 184.244 368.582 169.091 L 368.671 153.937 383.997 153.849 L 399.323 153.761 399.323 107.705 L 399.323 61.650 383.997 61.561 L 368.671 61.473 368.582 46.147 L 368.494 30.821 353.256 30.821 L 338.019 30.821 338.019 15.411 L 338.019 0.000 291.959 0.000 L 245.900 0.000 245.812 15.326 L 245.724 30.652 230.401 30.740 L 215.079 30.828 214.991 46.151 L 214.903 61.473 199.661 61.473 L 184.420 61.473 184.332 46.147 L 184.244 30.821 169.006 30.821 L 153.768 30.821 153.768 15.411 L 153.768 0.000 107.709 0.000 L 61.650 0.000 61.561 15.326 M153.687 46.144 L 153.775 61.297 168.928 61.385 L 184.081 61.473 184.169 76.799 L 184.258 92.125 199.661 92.125 L 215.065 92.125 215.153 76.799 L 215.241 61.473 230.567 61.385 L 245.893 61.297 245.893 46.059 L 245.893 30.821 291.956 30.821 L 338.019 30.821 338.019 46.059 L 338.019 61.297 322.862 61.408 C 314.526 61.470,321.423 61.509,338.188 61.497 L 368.671 61.473 368.671 107.536 L 368.671 153.599 353.260 153.599 L 337.849 153.599 337.849 169.009 L 337.849 184.420 322.523 184.508 L 307.197 184.596 307.197 199.831 L 307.197 215.065 291.871 215.153 L 276.545 215.241 276.457 230.567 L 276.369 245.893 261.135 245.893 L 245.900 245.893 245.812 261.219 L 245.724 276.545 230.401 276.633 L 215.079 276.722 214.991 292.044 L 214.903 307.367 199.661 307.367 L 184.420 307.367 184.332 292.041 L 184.244 276.715 169.009 276.715 L 153.775 276.715 153.687 261.389 L 153.599 246.063 138.276 245.975 L 122.954 245.886 122.865 230.564 L 122.777 215.241 107.451 215.153 L 92.125 215.065 92.125 199.831 L 92.125 184.596 76.799 184.508 L 61.473 184.420 61.385 169.094 L 61.297 153.768 46.058 153.768 L 30.819 153.768 30.905 107.621 L 30.991 61.473 46.147 61.385 L 61.304 61.297 61.304 46.285 C 61.304 38.028,61.406 31.171,61.531 31.046 C 61.656 30.921,82.422 30.858,107.678 30.905 L 153.599 30.991 153.687 46.144 "
          stroke="none" fill="#f4bc04" fill-rule="evenodd"></path>
    <path id="path2"
          d="M61.531 31.046 C 61.406 31.171,61.304 38.028,61.304 46.285 L 61.304 61.297 46.147 61.385 L 30.991 61.473 30.905 107.621 L 30.819 153.768 46.058 153.768 L 61.297 153.768 61.385 169.094 L 61.473 184.420 76.799 184.508 L 92.125 184.596 92.125 199.831 L 92.125 215.065 107.451 215.153 L 122.777 215.241 122.865 230.564 L 122.954 245.886 138.276 245.975 L 153.599 246.063 153.687 261.389 L 153.775 276.715 169.009 276.715 L 184.244 276.715 184.332 292.041 L 184.420 307.367 199.661 307.367 L 214.903 307.367 214.991 292.044 L 215.079 276.722 230.401 276.633 L 245.724 276.545 245.812 261.219 L 245.900 245.893 261.135 245.893 L 276.369 245.893 276.457 230.567 L 276.545 215.241 291.871 215.153 L 307.197 215.065 307.197 199.831 L 307.197 184.596 322.523 184.508 L 337.849 184.420 337.937 169.097 L 338.026 153.775 353.348 153.687 L 368.671 153.599 368.671 107.536 L 368.671 61.473 353.429 61.473 L 338.188 61.473 338.100 76.796 L 338.012 92.118 322.689 92.207 L 307.367 92.295 307.279 107.621 L 307.190 122.947 291.780 122.947 L 276.369 122.947 276.457 107.621 L 276.545 92.295 291.868 92.207 L 307.190 92.118 307.279 76.796 L 307.367 61.473 322.693 61.385 L 338.019 61.297 338.019 46.059 L 338.019 30.821 291.956 30.821 L 245.893 30.821 245.893 46.059 L 245.893 61.297 230.567 61.385 L 215.241 61.473 215.153 76.799 L 215.065 92.125 199.661 92.125 L 184.258 92.125 184.169 76.799 L 184.081 61.473 168.928 61.385 L 153.775 61.297 153.687 46.144 L 153.599 30.991 107.678 30.905 C 82.422 30.858,61.656 30.921,61.531 31.046 M338.019 138.357 L 338.019 153.768 322.608 153.768 L 307.197 153.768 307.197 138.357 L 307.197 122.947 322.608 122.947 L 338.019 122.947 338.019 138.357 "
          stroke="none" fill="#ac1c1c" fill-rule="evenodd"></path>
  </g>
</svg>
